<?xml version="1.0" encoding="utf-8"?>
<!-- Generator: Adobe Illustrator 28.0.0, SVG Export Plug-In . SVG Version: 6.00 Build 0)  -->
<svg version="1.1" id="Ebene_1" xmlns="http://www.w3.org/2000/svg" xmlns:xlink="http://www.w3.org/1999/xlink" x="0px" y="0px"
	 viewBox="0 0 24 24" style="enable-background:new 0 0 24 24;" xml:space="preserve">
<style type="text/css">
	.st0{fill-rule:evenodd;clip-rule:evenodd;fill:#FFFFFF;}
</style>
<path class="st0" d="M3,12c0-5,4-9,9-9c5,0,9,4,9,9c0,5-4,9-9,9C7,21,3,17,3,12z M5.1,13c0.5,3.4,3.4,6,6.9,6c3.5,0,6.4-2.6,6.9-6
	h-4.1c-0.4,1.2-1.5,2-2.8,2s-2.4-0.8-2.8-2H5.1z M18.9,11c-0.5-3.4-3.4-6-6.9-6c-3.5,0-6.4,2.6-6.9,6h4.1c0.4-1.2,1.5-2,2.8-2
	s2.4,0.8,2.8,2H18.9z M12,13c0.6,0,1-0.4,1-1s-0.4-1-1-1s-1,0.4-1,1S11.4,13,12,13z"/>
</svg>
